<?xml version="1.0" encoding="utf-8"?>
<!-- Generator: Adobe Illustrator 18.0.0, SVG Export Plug-In . SVG Version: 6.00 Build 0)  -->
<!DOCTYPE svg PUBLIC "-//W3C//DTD SVG 1.1//EN" "http://www.w3.org/Graphics/SVG/1.1/DTD/svg11.dtd">
<svg version="1.1" id="Layer_1" xmlns="http://www.w3.org/2000/svg" xmlns:xlink="http://www.w3.org/1999/xlink" x="0px" y="0px"
	 viewBox="0 0 612 792" enable-background="new 0 0 612 792" xml:space="preserve">
<g>
	<g>
		<path d="M531.3,446.3c6.8,24.4-4.4,52.5-25.6,60.6c-128.7,51.9-266,53.1-396,4.4c-21.2-8.2-33.1-35.6-26.8-60l0,0
			c6.2-24.4,25.6-37.5,44.4-30.6c118.1,43.7,242.4,42.5,358.5-4.4C504.5,408.8,524.5,421.3,531.3,446.3L531.3,446.3z"/>
		<g>
			<path d="M91.7,352.6c8.8,4.4,8.2,11.8,7.4,16.8c-0.6,5.6,10.6,6.2,14.4,5c9.4-3.8,20.6-8.2,29.4-6.2c7.4,1.8,10.6,8.2,13.8,14.4
				c1.2,3.2,5.6,11.8,18.1,4.4c8.2-5,18.1-10,27.5-8.8c8.2,1.2,12.5,8.2,18.1,13.8c8.8,10,16.2,4.4,19.4,2.4
				c7.4-5,15.6-11.2,25-10.6c8.8,0.6,15,6.2,21.2,11.8c10.6,10,13.8,7.5,22.5,0c6.8-5.6,13.8-11.8,22.5-11.8
				c9.4-0.6,18.1,5.6,25.6,10.6c12.5,8.8,15.6,5.6,22.5-2.4c5-6.2,10.6-12.5,19.4-13.8c9.4-1.2,19.4,3.8,28.1,8.2
				c9.4,5,16.8,3.2,21.2-5c3.8-6.2,7.4-12.5,15-14.4c9.4-1.8,20.6,2.4,30.6,6.2c3.8,1.2,18.8,5,17.5-5c-0.6-5,0-12.5,10-16.2
				c1.2-0.6,2.4-0.6,4.4-0.6c-9.4-15-25-21.2-39.4-15.6c-116.7,46.9-241,48.1-358.5,4.4C114.1,335.7,100.3,340.7,91.7,352.6
				L91.7,352.6z"/>
			<path d="M602.5,380.7c-8.8-23.8-35-35.6-59.3-28.8c-3.8,1.2-10,2.4-9.4,4.4h-0.6c-3.8,0-4.4,10.6-4.4,10.6c0,1.2,0,2.4,0,4.4
				c0,6.2,0.6,15.6-14.4,20c-7.4,1.8-16.8-1.8-26.2-5.6c-14.4-5.6-18.8-5.6-23.8,3.8c-3.8,6.8-8.8,15.6-18.8,17.5
				c-9.4,1.8-18.8-3.2-27.5-8.2c-11.2-6.2-16.8-5.6-23.8,2.4c-5.6,6.8-11.8,14.4-22.5,15.6c-10,0.6-18.1-5-26.8-10.6
				c-12.5-8.8-15-7.5-24.4,0.6c-6.8,6.2-15,13.2-25.6,13.2c-10.6,0-17.5-7.5-24.4-13.8c-2.4-2.4-9.4-9.4-21.2,0
				c-7.4,6.2-16.2,11.8-25.6,11.2c-10-0.6-16.2-8.8-21.2-15.6c-1.8-2.4-6.8-8.8-20.6-1.8c-8.8,4.4-18.1,10-26.8,8.2
				c-10-1.8-13.8-10.6-17.5-17.5c-1.2-2.4-6.8-10-20.6-3.2c-8.8,4.4-18.1,7.5-25.6,5c-14.4-5-13.2-15-11.8-20.6
				c0.6-3.8,0-6.8-0.6-8.2c0-1.2-5-3.2-5-3.8c-3.8-0.6-1.8-1.2-5.6-1.8c-24.4-6.8-50.6,6.2-58.7,30c-8.2,23.8,7.4,50.6,35,58.1
				c8.2,2.4,16.2,4.4,24.4,6.2c0-1.8,0.6-3.8,1.2-5.6c6.2-25,24.4-41.2,45.6-41.2c5,0,9.4,0.6,14.4,2.4
				c55.6,20.6,114.3,36.8,171.8,36.8l0,0c61.2,0,119.9-17.5,178.6-41.2c5-1.8,10-3.2,15-3.2c20.6,0,38.7,16.2,45.6,40
				c0.6,1.8,1.2,4.4,1.2,6.2c8.8-2.4,16.8-4.4,25.6-6.8C596.3,431.3,611.2,404.4,602.5,380.7z"/>
		</g>
	</g>
	<g>
		<path d="M244.6,231.4c6.8-15,8.2-31.2,3.2-47.5c-3.2-13.2-18.1-23.1-31.2-16.2c0,0-1.8,1.8-1.8,3.2c1.8,13.2,8.2,24.4,5,37.5
			c-5,16.2-16.2,28.1-21.2,44.4c-5,15-3.2,31.2,3.2,44.4c4.4,7.5,9.4,13.8,25.6,13.8c3.8,0,6.8-3.2,6.8-6.8
			c0-1.2-11.8-28.8-4.4-44.4C234.6,249.5,240.9,241.4,244.6,231.4z"/>
		<path d="M412.6,231.4c6.8-15,8.2-31.2,3.2-47.5c-3.2-13.2-18.1-23.1-31.2-16.2c0,0-1.8,1.8-1.8,3.2c1.8,13.2,8.2,24.4,5,37.5
			c-5,16.2-16.2,28.1-21.2,44.4c-5,15-3.2,31.2,3.2,44.4c4.4,7.5,9.4,13.8,25.6,13.8c3.8,0,6.8-3.2,6.8-6.8
			c0-1.2-11.8-28.8-4.4-44.4C402.6,249.5,409.6,241.4,412.6,231.4z"/>
		<path d="M336.5,221.4c3.2-10,1.8-20,1.8-29.4c0-6.8-1.8-11.2-3.2-18.1c0-0.6-0.6-1.2-0.6-1.8c0-0.6-0.6-1.2-0.6-1.8
			c-0.6-1.2-1.2-2.4-1.8-3.8c-1.2-2.4-3.8-4.4-5.6-6.2c-1.8-1.8-4.4-3.8-6.8-5c-2.4-1.2-5-2.4-8.2-2.4c-2.4,0-4.4,0-6.8,0.6
			c-1.8,0.6-4.4,0.6-6.2,2.4c-0.6,0.6-0.6,0.6-1.2,1.2c-0.6,1.2-0.6,1.8,0,3.2c0,0.6,0,1.2,0.6,1.8c0,0.6,0.6,1.8,0.6,2.4
			c0.6,1.8,1.2,3.8,1.2,5c1.2,3.8,1.8,6.8,3.2,10.6c0.6,3.8,1.8,6.8,2.4,10.6c0.6,3.8,0.6,6.8,0.6,10.6c-0.6,3.8-1.2,7.5-2.4,10.6
			c0,0.6,0,0.6-0.6,1.2c-8.2,18.1-20,33.1-24.4,52.5c-5,20-5,42.5,8.2,59.3c6.8,6.8,18.1,13.2,28.1,6.8c1.8-1.8,3.2-3.2,3.2-5
			c0-3.2,0-5-1.8-8.2c-6.8-15-8.2-31.2-3.2-46.2C319.6,254.5,331.5,239.5,336.5,221.4z"/>
	</g>
</g>
</svg>
